<mxfile host="app.diagrams.net" agent="Mozilla/5.0 (Windows NT 10.0; Win64; x64) AppleWebKit/537.36 (KHTML, like Gecko) Chrome/132.0.0.0 Safari/537.36" version="26.0.10">
  <diagram id="GNU3i8hCxYjH3E0Nk9u4" name="Page-1">
    <mxGraphModel dx="1744" dy="883" grid="1" gridSize="10" guides="1" tooltips="1" connect="1" arrows="1" fold="1" page="1" pageScale="1" pageWidth="850" pageHeight="1100" math="0" shadow="0">
      <root>
        <mxCell id="0" />
        <mxCell id="1" parent="0" />
        <mxCell id="FXCXVvDxTQtwc45PbP1s-120" style="edgeStyle=orthogonalEdgeStyle;rounded=0;orthogonalLoop=1;jettySize=auto;html=1;startArrow=block;startFill=1;endArrow=block;endFill=1;" parent="1" source="FXCXVvDxTQtwc45PbP1s-93" target="FXCXVvDxTQtwc45PbP1s-94" edge="1">
          <mxGeometry relative="1" as="geometry" />
        </mxCell>
        <mxCell id="FXCXVvDxTQtwc45PbP1s-121" style="edgeStyle=orthogonalEdgeStyle;rounded=0;orthogonalLoop=1;jettySize=auto;html=1;startArrow=block;startFill=1;endArrow=block;endFill=1;" parent="1" source="FXCXVvDxTQtwc45PbP1s-94" edge="1">
          <mxGeometry relative="1" as="geometry">
            <mxPoint x="183.50000000000023" y="539.5" as="targetPoint" />
          </mxGeometry>
        </mxCell>
        <mxCell id="FXCXVvDxTQtwc45PbP1s-161" value="VPC - 10.100.0.0/16" style="swimlane;fontStyle=0;horizontal=1;collapsible=0;startSize=28;swimlaneLine=0;swimlaneFillColor=none;fillColor=none;rounded=0;whiteSpace=wrap;html=1;absoluteArcSize=1;arcSize=12;strokeColor=#417CB9;verticalAlign=top;align=left;spacingLeft=30;spacingTop=1;dashed=0;strokeWidth=1;" parent="1" vertex="1">
          <mxGeometry x="240" y="40" width="1100" height="880" as="geometry" />
        </mxCell>
        <mxCell id="FXCXVvDxTQtwc45PbP1s-162" value="" style="aspect=fixed;perimeter=ellipsePerimeter;html=1;align=center;shadow=0;dashed=0;fontColor=#4277BB;labelBackgroundColor=#ffffff;fontSize=12;spacingTop=3;image;image=img/lib/ibm/vpc/VPCTag.svg;part=1;" parent="FXCXVvDxTQtwc45PbP1s-161" vertex="1">
          <mxGeometry width="30" height="30" as="geometry" />
        </mxCell>
        <mxCell id="FXCXVvDxTQtwc45PbP1s-163" value="Region" style="swimlane;fontStyle=0;horizontal=1;collapsible=0;startSize=28;swimlaneLine=0;swimlaneFillColor=none;fillColor=none;rounded=0;whiteSpace=wrap;html=1;absoluteArcSize=1;arcSize=0;strokeColor=#00882B;verticalAlign=top;align=left;spacingLeft=30;dashed=1;strokeWidth=1;container=1;dashPattern=1 1;" parent="1" vertex="1">
          <mxGeometry x="253.5" y="80" width="1070" height="829.5" as="geometry" />
        </mxCell>
        <mxCell id="ur3kafw1qKhpfOSSZFUt-43" value="&lt;div&gt;&lt;br&gt;&lt;/div&gt;&lt;div&gt;&lt;br&gt;&lt;/div&gt;&lt;div&gt;&lt;br&gt;&lt;/div&gt;&lt;div&gt;&lt;br&gt;&lt;/div&gt;&lt;div&gt;&lt;br&gt;&lt;/div&gt;&lt;div&gt;&lt;br&gt;&lt;/div&gt;&lt;div&gt;&lt;br&gt;&lt;/div&gt;&lt;div&gt;&lt;br&gt;&lt;/div&gt;&lt;div&gt;&lt;br&gt;&lt;/div&gt;&lt;div&gt;&lt;br&gt;&lt;/div&gt;&lt;div&gt;&lt;br&gt;&lt;/div&gt;&lt;div&gt;&lt;br&gt;&lt;/div&gt;&lt;div&gt;&lt;br&gt;&lt;/div&gt;&lt;div&gt;&lt;br&gt;&lt;/div&gt;&lt;div&gt;&lt;br&gt;&lt;/div&gt;&lt;div&gt;&lt;br&gt;&lt;/div&gt;&lt;div&gt;&lt;br&gt;&lt;/div&gt;&lt;div&gt;&lt;br&gt;&lt;/div&gt;&lt;div&gt;&lt;br&gt;&lt;/div&gt;&lt;div&gt;&lt;br&gt;&lt;/div&gt;&lt;div&gt;&lt;br&gt;&lt;/div&gt;&lt;div&gt;&lt;br&gt;&lt;/div&gt;Security&lt;br&gt;Group Nextcloud" style="rounded=0;whiteSpace=wrap;html=1;absoluteArcSize=1;arcSize=0;strokeColor=#FD0000;fillColor=none;verticalAlign=top;align=center;spacingLeft=5;dashed=1;dashPattern=5 2;labelPosition=center;verticalLabelPosition=middle;strokeWidth=2;" vertex="1" parent="FXCXVvDxTQtwc45PbP1s-163">
          <mxGeometry x="65" y="449.5" width="940" height="360.5" as="geometry" />
        </mxCell>
        <mxCell id="FXCXVvDxTQtwc45PbP1s-164" value="" style="aspect=fixed;perimeter=ellipsePerimeter;html=1;align=center;shadow=0;dashed=0;fontColor=#4277BB;labelBackgroundColor=#ffffff;fontSize=12;spacingTop=3;image;image=img/lib/ibm/vpc/RegionTag.svg;part=1;" parent="FXCXVvDxTQtwc45PbP1s-163" vertex="1">
          <mxGeometry width="30" height="30" as="geometry" />
        </mxCell>
        <mxCell id="FXCXVvDxTQtwc45PbP1s-160" value="Security&lt;br&gt;Group Bastion" style="rounded=0;whiteSpace=wrap;html=1;absoluteArcSize=1;arcSize=0;strokeColor=#FD0000;fillColor=none;verticalAlign=top;align=center;spacingLeft=5;dashed=1;dashPattern=5 2;labelPosition=center;verticalLabelPosition=middle;strokeWidth=2;" parent="FXCXVvDxTQtwc45PbP1s-163" vertex="1">
          <mxGeometry x="60" y="50" width="940" height="310" as="geometry" />
        </mxCell>
        <mxCell id="FXCXVvDxTQtwc45PbP1s-149" value="Subnet 10.100.1.0/24&amp;nbsp;- Public" style="swimlane;fontStyle=0;horizontal=1;collapsible=0;startSize=28;swimlaneLine=0;swimlaneFillColor=none;fillColor=none;rounded=0;whiteSpace=wrap;html=1;absoluteArcSize=1;arcSize=12;strokeColor=#2A8838;verticalAlign=top;align=left;spacingLeft=30;spacingTop=1;dashed=0;strokeWidth=1;" parent="FXCXVvDxTQtwc45PbP1s-163" vertex="1">
          <mxGeometry x="106.5" y="100.5" width="260" height="229.5" as="geometry" />
        </mxCell>
        <mxCell id="FXCXVvDxTQtwc45PbP1s-150" value="" style="aspect=fixed;perimeter=ellipsePerimeter;html=1;align=center;shadow=0;dashed=0;fontColor=#4277BB;labelBackgroundColor=#ffffff;fontSize=12;spacingTop=3;image;image=img/lib/ibm/vpc/SubnetTag.svg;part=1;" parent="FXCXVvDxTQtwc45PbP1s-149" vertex="1">
          <mxGeometry width="30" height="40" as="geometry" />
        </mxCell>
        <mxCell id="ur3kafw1qKhpfOSSZFUt-24" value="Bastion" style="outlineConnect=0;dashed=0;verticalLabelPosition=bottom;verticalAlign=top;align=center;html=1;shape=mxgraph.aws3.ec2;fillColor=#F58534;gradientColor=none;" vertex="1" parent="FXCXVvDxTQtwc45PbP1s-149">
          <mxGeometry x="91.75" y="68.25" width="76.5" height="93" as="geometry" />
        </mxCell>
        <mxCell id="ur3kafw1qKhpfOSSZFUt-4" value="Subnet 10.100.2.0/24&amp;nbsp;- Public" style="swimlane;fontStyle=0;horizontal=1;collapsible=0;startSize=28;swimlaneLine=0;swimlaneFillColor=none;fillColor=none;rounded=0;whiteSpace=wrap;html=1;absoluteArcSize=1;arcSize=12;strokeColor=#2A8838;verticalAlign=top;align=left;spacingLeft=30;spacingTop=1;dashed=0;strokeWidth=1;" vertex="1" parent="FXCXVvDxTQtwc45PbP1s-163">
          <mxGeometry x="416.5" y="100.5" width="260" height="229.5" as="geometry" />
        </mxCell>
        <mxCell id="ur3kafw1qKhpfOSSZFUt-5" value="" style="aspect=fixed;perimeter=ellipsePerimeter;html=1;align=center;shadow=0;dashed=0;fontColor=#4277BB;labelBackgroundColor=#ffffff;fontSize=12;spacingTop=3;image;image=img/lib/ibm/vpc/SubnetTag.svg;part=1;" vertex="1" parent="ur3kafw1qKhpfOSSZFUt-4">
          <mxGeometry width="30" height="40" as="geometry" />
        </mxCell>
        <mxCell id="ur3kafw1qKhpfOSSZFUt-8" value="Subnet 10.100.3.0/24&amp;nbsp;- Public" style="swimlane;fontStyle=0;horizontal=1;collapsible=0;startSize=28;swimlaneLine=0;swimlaneFillColor=none;fillColor=none;rounded=0;whiteSpace=wrap;html=1;absoluteArcSize=1;arcSize=12;strokeColor=#2A8838;verticalAlign=top;align=left;spacingLeft=30;spacingTop=1;dashed=0;strokeWidth=1;" vertex="1" parent="FXCXVvDxTQtwc45PbP1s-163">
          <mxGeometry x="726.5" y="100.5" width="260" height="229.5" as="geometry" />
        </mxCell>
        <mxCell id="ur3kafw1qKhpfOSSZFUt-9" value="" style="aspect=fixed;perimeter=ellipsePerimeter;html=1;align=center;shadow=0;dashed=0;fontColor=#4277BB;labelBackgroundColor=#ffffff;fontSize=12;spacingTop=3;image;image=img/lib/ibm/vpc/SubnetTag.svg;part=1;" vertex="1" parent="ur3kafw1qKhpfOSSZFUt-8">
          <mxGeometry width="30" height="40" as="geometry" />
        </mxCell>
        <mxCell id="ur3kafw1qKhpfOSSZFUt-26" value="Bastion" style="outlineConnect=0;dashed=0;verticalLabelPosition=bottom;verticalAlign=top;align=center;html=1;shape=mxgraph.aws3.ec2;fillColor=#F58534;gradientColor=none;" vertex="1" parent="ur3kafw1qKhpfOSSZFUt-8">
          <mxGeometry x="91.75" y="60" width="76.5" height="93" as="geometry" />
        </mxCell>
        <mxCell id="ur3kafw1qKhpfOSSZFUt-15" value="Subnet 10.100.4.0/24&amp;nbsp;- Private" style="swimlane;fontStyle=0;horizontal=1;collapsible=0;startSize=28;swimlaneLine=0;swimlaneFillColor=none;fillColor=none;rounded=0;whiteSpace=wrap;html=1;absoluteArcSize=1;arcSize=12;strokeColor=#2A8838;verticalAlign=top;align=left;spacingLeft=30;spacingTop=1;dashed=0;strokeWidth=1;" vertex="1" parent="FXCXVvDxTQtwc45PbP1s-163">
          <mxGeometry x="95" y="530" width="260" height="229.5" as="geometry" />
        </mxCell>
        <mxCell id="ur3kafw1qKhpfOSSZFUt-16" value="" style="aspect=fixed;perimeter=ellipsePerimeter;html=1;align=center;shadow=0;dashed=0;fontColor=#4277BB;labelBackgroundColor=#ffffff;fontSize=12;spacingTop=3;image;image=img/lib/ibm/vpc/SubnetTag.svg;part=1;" vertex="1" parent="ur3kafw1qKhpfOSSZFUt-15">
          <mxGeometry width="30" height="40" as="geometry" />
        </mxCell>
        <mxCell id="ur3kafw1qKhpfOSSZFUt-17" value="Subnet 10.100.5.0/24&amp;nbsp;- Private" style="swimlane;fontStyle=0;horizontal=1;collapsible=0;startSize=28;swimlaneLine=0;swimlaneFillColor=none;fillColor=none;rounded=0;whiteSpace=wrap;html=1;absoluteArcSize=1;arcSize=12;strokeColor=#2A8838;verticalAlign=top;align=left;spacingLeft=30;spacingTop=1;dashed=0;strokeWidth=1;" vertex="1" parent="FXCXVvDxTQtwc45PbP1s-163">
          <mxGeometry x="405" y="530" width="260" height="229.5" as="geometry" />
        </mxCell>
        <mxCell id="ur3kafw1qKhpfOSSZFUt-18" value="" style="aspect=fixed;perimeter=ellipsePerimeter;html=1;align=center;shadow=0;dashed=0;fontColor=#4277BB;labelBackgroundColor=#ffffff;fontSize=12;spacingTop=3;image;image=img/lib/ibm/vpc/SubnetTag.svg;part=1;" vertex="1" parent="ur3kafw1qKhpfOSSZFUt-17">
          <mxGeometry width="30" height="40" as="geometry" />
        </mxCell>
        <mxCell id="ur3kafw1qKhpfOSSZFUt-20" value="Subnet 10.100.6.0/24&amp;nbsp;- Private" style="swimlane;fontStyle=0;horizontal=1;collapsible=0;startSize=28;swimlaneLine=0;swimlaneFillColor=none;fillColor=none;rounded=0;whiteSpace=wrap;html=1;absoluteArcSize=1;arcSize=12;strokeColor=#2A8838;verticalAlign=top;align=left;spacingLeft=30;spacingTop=1;dashed=0;strokeWidth=1;" vertex="1" parent="FXCXVvDxTQtwc45PbP1s-163">
          <mxGeometry x="715" y="530" width="260" height="229.5" as="geometry" />
        </mxCell>
        <mxCell id="ur3kafw1qKhpfOSSZFUt-21" value="" style="aspect=fixed;perimeter=ellipsePerimeter;html=1;align=center;shadow=0;dashed=0;fontColor=#4277BB;labelBackgroundColor=#ffffff;fontSize=12;spacingTop=3;image;image=img/lib/ibm/vpc/SubnetTag.svg;part=1;" vertex="1" parent="ur3kafw1qKhpfOSSZFUt-20">
          <mxGeometry width="30" height="40" as="geometry" />
        </mxCell>
        <mxCell id="ur3kafw1qKhpfOSSZFUt-28" value="Nextcloud" style="outlineConnect=0;dashed=0;verticalLabelPosition=bottom;verticalAlign=top;align=center;html=1;shape=mxgraph.aws3.ec2;fillColor=#F58534;gradientColor=none;" vertex="1" parent="ur3kafw1qKhpfOSSZFUt-20">
          <mxGeometry x="103.25" y="68.25" width="76.5" height="93" as="geometry" />
        </mxCell>
        <mxCell id="ur3kafw1qKhpfOSSZFUt-25" value="Bastion" style="outlineConnect=0;dashed=0;verticalLabelPosition=bottom;verticalAlign=top;align=center;html=1;shape=mxgraph.aws3.ec2;fillColor=#F58534;gradientColor=none;" vertex="1" parent="FXCXVvDxTQtwc45PbP1s-163">
          <mxGeometry x="508.25" y="168.75" width="76.5" height="93" as="geometry" />
        </mxCell>
        <mxCell id="ur3kafw1qKhpfOSSZFUt-27" value="Nextcloud" style="outlineConnect=0;dashed=0;verticalLabelPosition=bottom;verticalAlign=top;align=center;html=1;shape=mxgraph.aws3.ec2;fillColor=#F58534;gradientColor=none;" vertex="1" parent="FXCXVvDxTQtwc45PbP1s-163">
          <mxGeometry x="186.75" y="598.25" width="76.5" height="93" as="geometry" />
        </mxCell>
        <mxCell id="ur3kafw1qKhpfOSSZFUt-29" value="Nextcloud" style="outlineConnect=0;dashed=0;verticalLabelPosition=bottom;verticalAlign=top;align=center;html=1;shape=mxgraph.aws3.ec2;fillColor=#F58534;gradientColor=none;" vertex="1" parent="FXCXVvDxTQtwc45PbP1s-163">
          <mxGeometry x="508.25" y="598.25" width="76.5" height="93" as="geometry" />
        </mxCell>
        <mxCell id="ur3kafw1qKhpfOSSZFUt-30" value="&amp;nbsp; &amp;nbsp; &amp;nbsp; &amp;nbsp; &amp;nbsp; &amp;nbsp; Private route table" style="points=[];aspect=fixed;html=1;align=left;shadow=0;dashed=0;fillColor=#FF6A00;strokeColor=none;shape=mxgraph.alibaba_cloud.route_table;" vertex="1" parent="FXCXVvDxTQtwc45PbP1s-163">
          <mxGeometry x="516.25" y="469.99999999999994" width="37.5" height="47.400000000000006" as="geometry" />
        </mxCell>
        <mxCell id="ur3kafw1qKhpfOSSZFUt-31" style="edgeStyle=orthogonalEdgeStyle;rounded=0;orthogonalLoop=1;jettySize=auto;html=1;entryX=0.04;entryY=0.558;entryDx=0;entryDy=0;entryPerimeter=0;" edge="1" parent="FXCXVvDxTQtwc45PbP1s-163" source="ur3kafw1qKhpfOSSZFUt-15" target="ur3kafw1qKhpfOSSZFUt-30">
          <mxGeometry relative="1" as="geometry">
            <Array as="points">
              <mxPoint x="237" y="496" />
            </Array>
          </mxGeometry>
        </mxCell>
        <mxCell id="ur3kafw1qKhpfOSSZFUt-32" style="edgeStyle=orthogonalEdgeStyle;rounded=0;orthogonalLoop=1;jettySize=auto;html=1;entryX=1.081;entryY=0.598;entryDx=0;entryDy=0;entryPerimeter=0;" edge="1" parent="FXCXVvDxTQtwc45PbP1s-163" source="ur3kafw1qKhpfOSSZFUt-20" target="ur3kafw1qKhpfOSSZFUt-30">
          <mxGeometry relative="1" as="geometry">
            <Array as="points">
              <mxPoint x="857" y="498" />
            </Array>
          </mxGeometry>
        </mxCell>
        <mxCell id="ur3kafw1qKhpfOSSZFUt-34" style="edgeStyle=orthogonalEdgeStyle;rounded=0;orthogonalLoop=1;jettySize=auto;html=1;entryX=0.497;entryY=0.819;entryDx=0;entryDy=0;entryPerimeter=0;" edge="1" parent="FXCXVvDxTQtwc45PbP1s-163" source="ur3kafw1qKhpfOSSZFUt-17" target="ur3kafw1qKhpfOSSZFUt-30">
          <mxGeometry relative="1" as="geometry" />
        </mxCell>
        <mxCell id="ur3kafw1qKhpfOSSZFUt-36" value="&amp;nbsp; &amp;nbsp; &amp;nbsp; &amp;nbsp; &amp;nbsp; &amp;nbsp; Public route table" style="points=[];aspect=fixed;html=1;align=left;shadow=0;dashed=0;fillColor=#FF6A00;strokeColor=none;shape=mxgraph.alibaba_cloud.route_table;" vertex="1" parent="FXCXVvDxTQtwc45PbP1s-163">
          <mxGeometry x="527.75" y="370" width="37.5" height="47.400000000000006" as="geometry" />
        </mxCell>
        <mxCell id="ur3kafw1qKhpfOSSZFUt-38" style="edgeStyle=orthogonalEdgeStyle;rounded=0;orthogonalLoop=1;jettySize=auto;html=1;entryX=-0.037;entryY=0.61;entryDx=0;entryDy=0;entryPerimeter=0;" edge="1" parent="FXCXVvDxTQtwc45PbP1s-163" source="FXCXVvDxTQtwc45PbP1s-149" target="ur3kafw1qKhpfOSSZFUt-36">
          <mxGeometry relative="1" as="geometry">
            <Array as="points">
              <mxPoint x="237" y="400" />
              <mxPoint x="515" y="400" />
            </Array>
          </mxGeometry>
        </mxCell>
        <mxCell id="ur3kafw1qKhpfOSSZFUt-39" style="edgeStyle=orthogonalEdgeStyle;rounded=0;orthogonalLoop=1;jettySize=auto;html=1;entryX=0.52;entryY=0.188;entryDx=0;entryDy=0;entryPerimeter=0;" edge="1" parent="FXCXVvDxTQtwc45PbP1s-163" source="ur3kafw1qKhpfOSSZFUt-4" target="ur3kafw1qKhpfOSSZFUt-36">
          <mxGeometry relative="1" as="geometry" />
        </mxCell>
        <mxCell id="ur3kafw1qKhpfOSSZFUt-42" style="edgeStyle=orthogonalEdgeStyle;rounded=0;orthogonalLoop=1;jettySize=auto;html=1;entryX=0.952;entryY=0.971;entryDx=0;entryDy=0;entryPerimeter=0;" edge="1" parent="FXCXVvDxTQtwc45PbP1s-163" source="ur3kafw1qKhpfOSSZFUt-8" target="ur3kafw1qKhpfOSSZFUt-36">
          <mxGeometry relative="1" as="geometry">
            <Array as="points">
              <mxPoint x="857" y="410" />
              <mxPoint x="564" y="410" />
            </Array>
          </mxGeometry>
        </mxCell>
        <mxCell id="ur3kafw1qKhpfOSSZFUt-44" style="edgeStyle=orthogonalEdgeStyle;rounded=0;orthogonalLoop=1;jettySize=auto;html=1;entryX=1;entryY=0.5;entryDx=0;entryDy=0;entryPerimeter=0;" edge="1" parent="FXCXVvDxTQtwc45PbP1s-163" source="ur3kafw1qKhpfOSSZFUt-26" target="ur3kafw1qKhpfOSSZFUt-28">
          <mxGeometry relative="1" as="geometry">
            <mxPoint x="1256.5" y="610" as="targetPoint" />
            <Array as="points">
              <mxPoint x="1137" y="210" />
              <mxPoint x="1137" y="645" />
            </Array>
          </mxGeometry>
        </mxCell>
        <mxCell id="ur3kafw1qKhpfOSSZFUt-45" value="SSH depuis Bastion" style="edgeLabel;html=1;align=center;verticalAlign=middle;resizable=0;points=[];" vertex="1" connectable="0" parent="ur3kafw1qKhpfOSSZFUt-44">
          <mxGeometry x="0.1659" y="-1" relative="1" as="geometry">
            <mxPoint as="offset" />
          </mxGeometry>
        </mxCell>
        <mxCell id="ur3kafw1qKhpfOSSZFUt-2" value="Internet Gateway" style="outlineConnect=0;dashed=0;verticalLabelPosition=bottom;verticalAlign=top;align=center;html=1;shape=mxgraph.aws3.internet_gateway;fillColor=#F58534;gradientColor=none;" vertex="1" parent="1">
          <mxGeometry x="150" y="478" width="69" height="72" as="geometry" />
        </mxCell>
        <mxCell id="ur3kafw1qKhpfOSSZFUt-41" style="edgeStyle=orthogonalEdgeStyle;rounded=0;orthogonalLoop=1;jettySize=auto;html=1;entryX=1;entryY=0.5;entryDx=0;entryDy=0;entryPerimeter=0;" edge="1" parent="1" source="ur3kafw1qKhpfOSSZFUt-36" target="ur3kafw1qKhpfOSSZFUt-2">
          <mxGeometry relative="1" as="geometry">
            <Array as="points">
              <mxPoint x="800" y="514" />
            </Array>
          </mxGeometry>
        </mxCell>
        <mxCell id="FXCXVvDxTQtwc45PbP1s-115" value="Icons" style="" parent="0" />
        <mxCell id="FXCXVvDxTQtwc45PbP1s-93" value="User" style="aspect=fixed;perimeter=ellipsePerimeter;html=1;align=center;shadow=0;dashed=0;fontColor=#4277BB;labelBackgroundColor=#ffffff;fontSize=12;spacingTop=3;image;image=img/lib/ibm/users/user.svg;" parent="FXCXVvDxTQtwc45PbP1s-115" vertex="1">
          <mxGeometry x="153.5" y="219.5" width="60" height="60" as="geometry" />
        </mxCell>
        <mxCell id="FXCXVvDxTQtwc45PbP1s-94" value="Internet" style="aspect=fixed;perimeter=ellipsePerimeter;html=1;align=center;shadow=0;dashed=0;fontColor=#4277BB;labelBackgroundColor=#ffffff;fontSize=12;spacingTop=3;image;image=img/lib/ibm/vpc/Internet.svg;" parent="FXCXVvDxTQtwc45PbP1s-115" vertex="1">
          <mxGeometry x="153.5" y="350" width="60" height="60" as="geometry" />
        </mxCell>
      </root>
    </mxGraphModel>
  </diagram>
</mxfile>
